<svg width="147" height="42" viewBox="0 0 147 42" fill="none" xmlns="http://www.w3.org/2000/svg">
<path d="M20.1648 41.347V33.3074H18.8175V38.8733L14.8877 33.3074H13.5085V41.347H14.8557V35.5973L18.8601 41.347H20.1648ZM33.1791 41.347L30.1598 33.3074H28.4771L25.4631 41.347H26.9914L27.5558 39.7926H31.081L31.6454 41.347H33.1791ZM30.7029 38.5501H27.9392L29.3184 34.717L30.7029 38.5501ZM39.8087 41.347V33.3074H38.4614V41.347H39.8087ZM50.5439 41.347V40.1046H47.1572V33.3074H45.8099V41.347H50.5439ZM64.0907 41.347C63.5369 40.7899 63.0523 40.2717 62.589 39.7703C63.0416 39.1296 63.3878 38.4164 63.6487 37.7646L62.6742 37.2966C62.5358 37.7646 62.2802 38.4053 61.9127 38.9847C61.6571 38.695 61.4069 38.383 61.1513 38.0543C60.9329 37.7924 60.656 37.4414 60.3898 37.057C61.3483 36.5723 62.3015 36.043 62.3015 34.8284C62.3015 33.781 61.4495 33.1904 60.4164 33.1904C59.2183 33.1904 58.329 34.0094 58.329 35.0791C58.329 35.6363 58.5473 36.2491 58.8722 36.8508C57.9829 37.3188 57.2001 37.9596 57.2001 39.202C57.2001 40.7174 58.3077 41.4918 59.6656 41.4918C60.5389 41.4918 61.2418 41.152 61.8169 40.645C62.0725 40.9236 62.3121 41.1631 62.4985 41.347H64.0907ZM59.8253 40.4778C59.1118 40.4778 58.4781 39.9708 58.4781 39.0906C58.4781 38.4164 58.8455 37.9986 59.3567 37.6476C59.6177 38.0431 59.9212 38.4443 60.2087 38.7897C60.4004 39.0571 60.7572 39.4806 61.1513 39.9096C60.7572 40.2494 60.3206 40.4778 59.8253 40.4778ZM59.5378 35.1181C59.5378 34.5275 59.9531 34.1153 60.459 34.1153C60.8957 34.1153 61.2311 34.405 61.2311 34.9008C61.2311 35.575 60.6454 35.9594 59.9212 36.3215C59.6869 35.8981 59.5378 35.4803 59.5378 35.1181ZM74.927 41.347C76.3754 41.347 77.1582 40.4166 77.1582 39.163C77.1582 38.188 76.5032 37.3356 75.6725 37.2018C76.3861 37.0458 77.0091 36.355 77.0091 35.3577C77.0091 34.2267 76.237 33.3074 74.8205 33.3074H71.0451V41.347H74.927ZM74.5596 36.6224H72.3923V34.5498H74.5596C75.2359 34.5498 75.6299 34.9955 75.6299 35.5861C75.6299 36.199 75.2359 36.6224 74.5596 36.6224ZM74.6129 40.1046H72.3923V37.8648H74.6129C75.3743 37.8648 75.779 38.383 75.779 38.9847C75.779 39.6811 75.3424 40.1046 74.6129 40.1046ZM88.2395 41.347V40.1046H84.3257V37.8648H88.1597V36.6224H84.3257V34.5498H88.2395V33.3074H82.9784V41.347H88.2395ZM100.998 41.347L97.9843 33.3074H96.3016L93.2823 41.347H94.8159L95.3804 39.7926H98.9055L99.47 41.347H100.998ZM98.5221 38.5501H95.7584L97.1429 34.717L98.5221 38.5501ZM109.268 41.4918C111.504 41.4918 112.596 40.1547 112.596 38.1657V33.3074H111.228V38.1267C111.228 39.4081 110.546 40.2383 109.268 40.2383C107.99 40.2383 107.308 39.4081 107.308 38.1267V33.3074H105.94V38.1657C105.94 40.1547 107.047 41.4918 109.268 41.4918ZM121.867 41.347V34.5498H124.194V33.3074H118.193V34.5498H120.52V41.347H121.867ZM133.326 41.347V38.0097L136.298 33.3074H134.753L132.65 36.745L130.541 33.3074H128.997L131.979 38.0097V41.347H133.326Z" fill="#2B2A29"/>
<path d="M23.7911 24.5825L14.7333 0.441406H9.67984L0.622009 24.5825H5.21748L6.91616 19.9136H17.4969L19.1956 24.5825H23.7911ZM16.3574 16.1863H8.05571L12.2039 4.67571L16.3574 16.1863ZM55.608 24.5825V0.441406H49.8996L43.6374 17.0165L37.3432 0.441406H31.6401V24.5825H35.6818V5.94043L42.7747 24.5825H44.5053L51.561 5.94043V24.5825H55.608ZM86.658 24.5825L77.5949 0.441406H72.5468L63.4836 24.5825H68.0844L69.7778 19.9136H80.3639L82.0572 24.5825H86.658ZM79.2243 16.1863H70.9227L75.0708 4.67571L79.2243 16.1863ZM108.443 24.5825V20.8552H98.2719V0.441406H94.2249V24.5825H108.443ZM121.404 24.5825V14.1193H132.922V10.392H121.404V4.16871H133.167V0.441406H117.357V24.5825H121.404ZM146.229 24.5825V0.441406H142.182V24.5825H146.229Z" fill="#2B2A29"/>
</svg>
