<svg width="15" height="21" viewBox="0 0 15 21" fill="none" xmlns="http://www.w3.org/2000/svg">
<path d="M7.62201 0.845703C3.75201 0.845703 0.622009 3.9757 0.622009 7.8457C0.622009 13.0957 7.62201 20.8457 7.62201 20.8457C7.62201 20.8457 14.622 13.0957 14.622 7.8457C14.622 3.9757 11.492 0.845703 7.62201 0.845703ZM7.62201 10.3457C6.95897 10.3457 6.32308 10.0823 5.85424 9.61347C5.3854 9.14463 5.12201 8.50874 5.12201 7.8457C5.12201 7.18266 5.3854 6.54678 5.85424 6.07794C6.32308 5.6091 6.95897 5.3457 7.62201 5.3457C8.28505 5.3457 8.92094 5.6091 9.38978 6.07794C9.85862 6.54678 10.122 7.18266 10.122 7.8457C10.122 8.50874 9.85862 9.14463 9.38978 9.61347C8.92094 10.0823 8.28505 10.3457 7.62201 10.3457Z" fill="black"/>
</svg>
