<svg width="61" height="18" viewBox="0 0 61 18" fill="none" xmlns="http://www.w3.org/2000/svg">
<path d="M8.67496 17.165V13.9441H8.11981V16.1739L6.50044 13.9441H5.93213V17.165H6.48728V14.8615L8.13736 17.165H8.67496ZM14.0377 17.165L12.7936 13.9441H12.1002L10.8583 17.165H11.488L11.7206 16.5422H13.1732L13.4058 17.165H14.0377ZM13.0174 16.0445H11.8786L12.4469 14.5088L13.0174 16.0445ZM16.7696 17.165V13.9441H16.2145V17.165H16.7696ZM21.1932 17.165V16.6672H19.7977V13.9441H19.2425V17.165H21.1932ZM26.7755 17.165C26.5473 16.9418 26.3476 16.7342 26.1567 16.5333C26.3432 16.2766 26.4858 15.9909 26.5933 15.7298L26.1918 15.5423C26.1347 15.7298 26.0294 15.9865 25.878 16.2186C25.7727 16.1025 25.6695 15.9775 25.5642 15.8458C25.4743 15.7409 25.3602 15.6003 25.2504 15.4463C25.6454 15.2521 26.0382 15.0401 26.0382 14.5535C26.0382 14.1339 25.6871 13.8973 25.2614 13.8973C24.7677 13.8973 24.4013 14.2254 24.4013 14.6539C24.4013 14.8771 24.4912 15.1227 24.6251 15.3637C24.2586 15.5512 23.9361 15.8079 23.9361 16.3056C23.9361 16.9127 24.3925 17.223 24.952 17.223C25.3119 17.223 25.6015 17.0868 25.8385 16.8837C25.9438 16.9953 26.0426 17.0913 26.1194 17.165H26.7755ZM25.0178 16.8168C24.7238 16.8168 24.4627 16.6137 24.4627 16.261C24.4627 15.9909 24.6141 15.8235 24.8248 15.6829C24.9323 15.8414 25.0573 16.0021 25.1758 16.1405C25.2548 16.2476 25.4018 16.4172 25.5642 16.5891C25.4018 16.7253 25.2219 16.8168 25.0178 16.8168ZM24.8994 14.6695C24.8994 14.433 25.0705 14.2678 25.279 14.2678C25.4589 14.2678 25.5971 14.3838 25.5971 14.5825C25.5971 14.8526 25.3558 15.0066 25.0573 15.1517C24.9608 14.982 24.8994 14.8146 24.8994 14.6695ZM31.2408 17.165C31.8376 17.165 32.1602 16.7922 32.1602 16.29C32.1602 15.8994 31.8903 15.5579 31.548 15.5043C31.842 15.4418 32.0987 15.1651 32.0987 14.7655C32.0987 14.3124 31.7806 13.9441 31.1969 13.9441H29.6412V17.165H31.2408ZM31.0894 15.2722H30.1963V14.4419H31.0894C31.3681 14.4419 31.5304 14.6204 31.5304 14.857C31.5304 15.1026 31.3681 15.2722 31.0894 15.2722ZM31.1113 16.6672H30.1963V15.7699H31.1113C31.4251 15.7699 31.5919 15.9775 31.5919 16.2186C31.5919 16.4976 31.4119 16.6672 31.1113 16.6672ZM36.7264 17.165V16.6672H35.1137V15.7699H36.6935V15.2722H35.1137V14.4419H36.7264V13.9441H34.5585V17.165H36.7264ZM41.9839 17.165L40.742 13.9441H40.0486L38.8044 17.165H39.4364L39.669 16.5422H41.1216L41.3542 17.165H41.9839ZM40.9636 16.0445H39.8247L40.3953 14.5088L40.9636 16.0445ZM45.3916 17.223C46.3132 17.223 46.763 16.6873 46.763 15.8905V13.9441H46.1991V15.8748C46.1991 16.3882 45.9182 16.7208 45.3916 16.7208C44.865 16.7208 44.5841 16.3882 44.5841 15.8748V13.9441H44.0202V15.8905C44.0202 16.6873 44.4766 17.223 45.3916 17.223ZM50.5832 17.165V14.4419H51.5421V13.9441H49.0692V14.4419H50.0281V17.165H50.5832ZM55.3053 17.165V15.828L56.5297 13.9441H55.8934L55.0266 15.3213L54.1577 13.9441H53.5214L54.7501 15.828V17.165H55.3053Z" fill="white"/>
<path d="M10.1693 10.4488L6.43681 0.777344H4.35446L0.622009 10.4488H2.51566L3.21563 8.57832H7.57564L8.27561 10.4488H10.1693ZM7.10606 7.08508H3.6852L5.39454 2.47369L7.10606 7.08508ZM23.28 10.4488V0.777344H20.9277L18.3473 7.41766L15.7537 0.777344H13.4036V10.4488H15.0691V2.98037L17.9918 10.4488H18.705L21.6124 2.98037V10.4488H23.28ZM36.0748 10.4488L32.3401 0.777344H30.26L26.5253 10.4488H28.4212L29.1189 8.57832H33.4811L34.1789 10.4488H36.0748ZM33.0116 7.08508H29.5907L31.3 2.47369L33.0116 7.08508ZM45.0515 10.4488V8.95553H40.8605V0.777344H39.1928V10.4488H45.0515ZM50.3923 10.4488V6.257H55.1385V4.76376H50.3923V2.27058H55.2395V0.777344H48.7247V10.4488H50.3923ZM60.622 10.4488V0.777344H58.9544V10.4488H60.622Z" fill="white"/>
</svg>
