<svg width="17" height="15" viewBox="0 0 17 15" fill="none" xmlns="http://www.w3.org/2000/svg">
<path d="M9.459 0.219227C9.41041 0.174972 9.35358 0.14072 9.29176 0.118428C9.22993 0.0961354 9.16432 0.0862401 9.09867 0.0893043C9.03302 0.0923684 8.96861 0.108333 8.90913 0.136288C8.84965 0.164243 8.79626 0.203639 8.752 0.252228C8.70775 0.300817 8.6735 0.357647 8.6512 0.419474C8.62891 0.481301 8.61901 0.546911 8.62208 0.612562C8.62514 0.678213 8.64111 0.742619 8.66906 0.802099C8.69702 0.86158 8.73641 0.914974 8.785 0.959229L14.952 6.58923L1.122 6.58923C0.989393 6.58923 0.862216 6.64191 0.768448 6.73567C0.674679 6.82944 0.622001 6.95662 0.622001 7.08923C0.622001 7.22184 0.674679 7.34901 0.768448 7.44278C0.862216 7.53655 0.989393 7.58923 1.122 7.58923L14.95 7.58923L8.785 13.2192C8.69211 13.3098 8.63809 13.433 8.63434 13.5627C8.6306 13.6924 8.67743 13.8185 8.76494 13.9143C8.85244 14.0101 8.97377 14.0682 9.10329 14.0762C9.23281 14.0842 9.36036 14.0415 9.459 13.9572L16.375 7.64323C16.4619 7.56422 16.529 7.4658 16.5707 7.35598C16.6124 7.24615 16.6276 7.12803 16.615 7.01123C16.5964 6.82842 16.5109 6.65892 16.375 6.53523L9.459 0.220229L9.459 0.219227Z" fill="#F388AA"/>
</svg>
