<svg width="17" height="15" viewBox="0 0 17 15" fill="none" xmlns="http://www.w3.org/2000/svg">
<path d="M9.45903 0.590809C9.41044 0.546554 9.35361 0.512302 9.29179 0.49001C9.22996 0.467717 9.16435 0.457822 9.0987 0.460886C9.03305 0.46395 8.96864 0.479915 8.90916 0.50787C8.84968 0.535825 8.79629 0.575221 8.75203 0.62381C8.70778 0.672399 8.67353 0.729229 8.65123 0.791056C8.62894 0.852883 8.61904 0.918494 8.62211 0.984144C8.62517 1.0498 8.64114 1.1142 8.66909 1.17368C8.69705 1.23316 8.73644 1.28656 8.78503 1.33081L14.952 6.96081L1.12203 6.96081C0.989423 6.96081 0.862246 7.01349 0.768478 7.10726C0.67471 7.20102 0.622032 7.3282 0.622032 7.46081C0.622032 7.59342 0.67471 7.72059 0.768478 7.81436C0.862246 7.90813 0.989423 7.96081 1.12203 7.96081L14.95 7.96081L8.78503 13.5908C8.69214 13.6814 8.63812 13.8046 8.63437 13.9343C8.63063 14.064 8.67746 14.1901 8.76497 14.2859C8.85247 14.3817 8.9738 14.4398 9.10332 14.4478C9.23284 14.4558 9.36039 14.4131 9.45903 14.3288L16.375 8.01481C16.462 7.9358 16.529 7.83738 16.5707 7.72756C16.6124 7.61773 16.6276 7.49961 16.615 7.38281C16.5964 7.2 16.5109 7.0305 16.375 6.90681L9.45903 0.591811L9.45903 0.590809Z" fill="#FAB38B"/>
</svg>
