<svg width="55" height="41" viewBox="0 0 55 41" fill="none" xmlns="http://www.w3.org/2000/svg">
<path d="M35.1596 39.6997C34.8702 39.9622 34.49 40.1017 34.0995 40.0885C33.709 40.0753 33.339 39.9105 33.068 39.6291C32.797 39.3476 32.6463 38.9717 32.6478 38.581C32.6494 38.1903 32.803 37.8156 33.0763 37.5363L49.6528 21.5908L2.08668 21.5908C1.68821 21.5908 1.30607 21.4325 1.02432 21.1507C0.742559 20.869 0.584268 20.4868 0.584268 20.0884C0.584268 19.6899 0.742559 19.3078 1.02432 19.026C1.30607 18.7442 1.68822 18.586 2.08668 18.586L49.6508 18.586L33.0763 2.64243C32.803 2.36315 32.6494 1.98842 32.6478 1.59771C32.6463 1.20701 32.797 0.831068 33.068 0.549635C33.339 0.268202 33.709 0.103415 34.0995 0.0902196C34.49 0.0770246 34.8702 0.216467 35.1596 0.478968L54.0458 18.646C54.24 18.8329 54.3945 19.0571 54.5 19.3051C54.6055 19.5531 54.6599 19.8198 54.6599 20.0894C54.6599 20.3589 54.6055 20.6256 54.5 20.8736C54.3945 21.1216 54.24 21.3458 54.0458 21.5327L35.1596 39.7018L35.1596 39.6997Z" fill="black"/>
</svg>
