<svg width="17" height="15" viewBox="0 0 17 15" fill="none" xmlns="http://www.w3.org/2000/svg">
<path d="M9.45903 0.219227C9.41044 0.174972 9.35361 0.14072 9.29179 0.118428C9.22996 0.0961354 9.16435 0.0862401 9.0987 0.0893043C9.03305 0.0923684 8.96864 0.108333 8.90916 0.136288C8.84968 0.164243 8.79629 0.203639 8.75203 0.252228C8.70778 0.300817 8.67353 0.357647 8.65123 0.419474C8.62894 0.481301 8.61904 0.546911 8.62211 0.612562C8.62517 0.678213 8.64114 0.742619 8.66909 0.802099C8.69705 0.86158 8.73644 0.914974 8.78503 0.959229L14.952 6.58923L1.12203 6.58923C0.989423 6.58923 0.862246 6.64191 0.768478 6.73567C0.67471 6.82944 0.622032 6.95662 0.622032 7.08923C0.622032 7.22184 0.67471 7.34901 0.768478 7.44278C0.862246 7.53655 0.989423 7.58923 1.12203 7.58923L14.95 7.58923L8.78503 13.2192C8.69214 13.3098 8.63812 13.433 8.63437 13.5627C8.63063 13.6924 8.67746 13.8185 8.76497 13.9143C8.85247 14.0101 8.9738 14.0682 9.10332 14.0762C9.23284 14.0842 9.36039 14.0415 9.45903 13.9572L16.375 7.64323C16.462 7.56422 16.529 7.4658 16.5707 7.35598C16.6124 7.24615 16.6276 7.12803 16.615 7.01123C16.5964 6.82842 16.5109 6.65892 16.375 6.53523L9.45903 0.220229L9.45903 0.219227Z" fill="#91D5DE"/>
</svg>
