<svg width="1338" height="698" viewBox="0 0 1338 698" fill="none" xmlns="http://www.w3.org/2000/svg">
<path d="M790.051 696.965H790.551V696.465V1.74023V1.24023H790.051H541.117H540.774L540.651 1.55988L395.299 377.397L250.986 1.561L250.863 1.24023H250.52H1.58527H1.08527V1.74023V696.465V696.965H1.58527H180.735H181.235V696.465V247.102L355.252 696.646L355.375 696.965H355.718H434.877H435.219L435.343 696.647L610.402 247.087V696.465V696.965H610.902H790.051ZM1589.93 696.965H1590.65L1590.39 696.289L1327.92 1.56352L1327.8 1.24023H1327.45H1102.47H1102.13L1102 1.56413L840.571 696.289L840.317 696.965H841.039H1044.14H1044.5L1044.62 696.628L1078.87 596.975H1352.09L1386.35 696.628L1386.46 696.965H1386.82H1589.93ZM2099.53 696.965H2100.03V696.465V540.23V539.73H2099.53H1820.89V1.74023V1.24023H1820.39H1641.24H1640.74V1.74023V696.465V696.965H1641.24H2099.53ZM2371.69 696.965H2372.19V696.465V423.033H2694.57H2695.07V422.533V266.298V265.798H2694.57H2372.19V158.475H2701.86H2702.36V157.975V1.74023V1.24023H2701.86H2192.54H2192.04V1.74023V696.465V696.965H2192.54H2371.69ZM2977.91 696.965H2978.41V696.465V1.74023V1.24023H2977.91H2798.76H2798.26V1.74023V696.465V696.965H2798.76H2977.91ZM1127.13 439.74L1214.96 180.366L1302.8 439.74H1127.13Z" fill="#F6ABC3" stroke="white"/>
</svg>
