<svg width="1920" height="479" viewBox="0 0 1920 479" fill="none" xmlns="http://www.w3.org/2000/svg">
<path opacity="0.8" fill-rule="evenodd" clip-rule="evenodd" d="M261.882 478.686H120.959L97.3612 410.039H-89.7245L-113.322 478.686H-254.244L-74.2428 0.355957H81.1638L261.882 478.686ZM-90.2144 409.352H97.8512L121.449 478H260.889L80.6893 1.0425H-73.7676L-253.252 478H-113.812L-90.2144 409.352ZM3.46082 122.606L-57.3208 302.091H64.2425L3.46082 122.606ZM3.46082 124.746L-56.3635 301.404H63.2852L3.46082 124.746ZM823.817 478.686H699.451V171.311L579.758 478.686H524.472L405.496 171.331V478.686H281.13V0.355957H453.192L552.118 257.992L651.756 0.355957H823.817V478.686ZM552.116 259.901L452.72 1.0425H281.816V478H404.81V167.656L524.943 478H579.289L700.137 167.656V478H823.131V1.0425H652.227L552.116 259.901ZM1358.97 478.686H1218.05L1194.45 410.039H1007.36L983.765 478.686H842.842L1022.84 0.355957H1178.25L1358.97 478.686ZM1006.87 409.352H1194.94L1218.54 478H1357.98L1177.78 1.0425H1023.32L843.834 478H983.275L1006.87 409.352ZM1100.55 122.606L1039.77 302.091H1161.33L1100.55 122.606ZM1100.55 124.746L1040.72 301.404H1160.37L1100.55 124.746ZM1694.22 478.686H1378.22V0.355957H1502.58V370.051H1694.22V478.686ZM1501.9 370.738V1.0425H1378.9V478H1693.54V370.738H1501.9ZM1866.77 478.686H1742.4V0.355957H2093.45V108.991H1866.77V181.986H2088.44V290.621H1866.77V478.686ZM1866.08 182.672V108.304H2092.76V1.0425H1743.09V478H1866.08V289.934H2087.76V182.672H1866.08ZM2268.67 478.686H2144.3V0.355957H2268.67V478.686ZM2267.98 478V1.0425H2144.99V478H2267.98Z" fill="white"/>
</svg>
