<svg width="341" height="680" viewBox="0 0 341 680" fill="none" xmlns="http://www.w3.org/2000/svg">
<path fill-rule="evenodd" clip-rule="evenodd" d="M337.862 236.111V615.428C337.862 637.881 335.522 646.023 331.128 654.232C326.735 662.44 320.287 668.882 312.071 673.272C303.855 677.662 295.706 680 273.233 680H67.7042C45.2312 680 37.082 677.662 28.8662 673.272C20.6504 668.882 14.2027 662.44 9.80881 654.232C5.41496 646.023 3.07506 637.881 3.07506 615.428V252.639C1.7699 252.639 0.711853 251.582 0.711853 250.278V204.63C0.711853 203.326 1.7699 202.269 3.07506 202.269V190.463C1.7699 190.463 0.711853 189.406 0.711853 188.102V142.454C0.711853 141.15 1.7699 140.093 3.07506 140.093V118.843C1.7699 118.843 0.711853 117.785 0.711853 116.481V94.4444C0.711853 93.1404 1.7699 92.0833 3.07506 92.0833V64.5719C3.07506 42.1189 5.41496 33.9768 9.80881 25.7683C14.2027 17.5598 20.6504 11.1177 28.8662 6.72779C37.082 2.33783 45.2312 0 67.7042 0H273.233C295.706 0 303.855 2.33783 312.071 6.72779C320.287 11.1177 326.735 17.5598 331.128 25.7683C335.522 33.9768 337.862 42.1189 337.862 64.5719V156.62C339.167 156.62 340.225 157.677 340.225 158.981V233.75C340.225 235.054 339.167 236.111 337.862 236.111ZM21.9807 69.1018C21.9807 52.3521 21.9807 43.9773 25.2433 37.5797C28.1131 31.9523 32.6925 27.377 38.3249 24.5097C44.7281 21.25 53.1104 21.25 69.8749 21.25L81.8485 21.25C84.7503 21.2577 87.1513 23.5049 87.3614 26.3529C87.4732 30.2669 88.2293 33.1395 89.5564 35.6188C90.9981 38.3123 93.1138 40.4261 95.8096 41.8665C98.5054 43.307 101.666 44.0741 106.122 44.0741H233.208C237.665 44.0741 240.825 43.307 243.521 41.8665C246.216 40.4261 248.332 38.3123 249.774 35.6188C251.099 33.1435 251.855 30.2762 251.968 26.372C252.169 23.5149 254.574 21.2577 257.483 21.25L269.487 21.25C286.251 21.25 294.634 21.25 301.037 24.5097C306.669 27.377 311.249 31.9523 314.119 37.5797C317.381 43.9773 317.381 52.3521 317.381 69.1018V612.472C317.381 629.222 317.381 637.597 314.119 643.994C311.249 649.622 306.669 654.197 301.037 657.064C294.634 660.324 286.251 660.324 269.487 660.324H69.8749C53.1104 660.324 44.7281 660.324 38.3249 657.064C32.6925 654.197 28.1131 649.622 25.2433 643.994C21.9807 637.597 21.9807 629.222 21.9807 612.472V69.1018Z" fill="#F388AA"/>
</svg>
